G04 #@! TF.GenerationSoftware,KiCad,Pcbnew,7.0.7*
G04 #@! TF.CreationDate,2024-03-21T15:18:08+09:00*
G04 #@! TF.ProjectId,rs-probe,72732d70-726f-4626-952e-6b696361645f,rev?*
G04 #@! TF.SameCoordinates,Original*
G04 #@! TF.FileFunction,Legend,Top*
G04 #@! TF.FilePolarity,Positive*
%FSLAX46Y46*%
G04 Gerber Fmt 4.6, Leading zero omitted, Abs format (unit mm)*
G04 Created by KiCad (PCBNEW 7.0.7) date 2024-03-21 15:18:08*
%MOMM*%
%LPD*%
G01*
G04 APERTURE LIST*
G04 Aperture macros list*
%AMRoundRect*
0 Rectangle with rounded corners*
0 $1 Rounding radius*
0 $2 $3 $4 $5 $6 $7 $8 $9 X,Y pos of 4 corners*
0 Add a 4 corners polygon primitive as box body*
4,1,4,$2,$3,$4,$5,$6,$7,$8,$9,$2,$3,0*
0 Add four circle primitives for the rounded corners*
1,1,$1+$1,$2,$3*
1,1,$1+$1,$4,$5*
1,1,$1+$1,$6,$7*
1,1,$1+$1,$8,$9*
0 Add four rect primitives between the rounded corners*
20,1,$1+$1,$2,$3,$4,$5,0*
20,1,$1+$1,$4,$5,$6,$7,0*
20,1,$1+$1,$6,$7,$8,$9,0*
20,1,$1+$1,$8,$9,$2,$3,0*%
G04 Aperture macros list end*
%ADD10C,0.200000*%
%ADD11C,0.265000*%
%ADD12C,0.275000*%
%ADD13C,0.153000*%
%ADD14C,0.100000*%
%ADD15C,0.120000*%
%ADD16C,0.150000*%
%ADD17RoundRect,0.400000X-1.500000X-0.400000X1.500000X-0.400000X1.500000X0.400000X-1.500000X0.400000X0*%
%ADD18RoundRect,0.185000X-1.015000X-0.185000X1.015000X-0.185000X1.015000X0.185000X-1.015000X0.185000X0*%
%ADD19C,0.650000*%
%ADD20RoundRect,0.150000X0.575000X-0.150000X0.575000X0.150000X-0.575000X0.150000X-0.575000X-0.150000X0*%
%ADD21O,1.450000X0.300000*%
%ADD22O,2.100000X1.000000*%
%ADD23O,1.600000X1.000000*%
%ADD24RoundRect,0.125000X0.200000X0.000000X-0.200000X0.000000X-0.200000X0.000000X0.200000X0.000000X0*%
%ADD25RoundRect,0.125000X0.125000X1.925000X-0.125000X1.925000X-0.125000X-1.925000X0.125000X-1.925000X0*%
%ADD26RoundRect,0.137500X-0.137500X-0.137500X0.137500X-0.137500X0.137500X0.137500X-0.137500X0.137500X0*%
%ADD27RoundRect,0.137500X0.137500X-0.137500X0.137500X0.137500X-0.137500X0.137500X-0.137500X-0.137500X0*%
%ADD28RoundRect,0.050000X-0.050000X0.387500X-0.050000X-0.387500X0.050000X-0.387500X0.050000X0.387500X0*%
%ADD29RoundRect,0.050000X-0.387500X0.050000X-0.387500X-0.050000X0.387500X-0.050000X0.387500X0.050000X0*%
%ADD30RoundRect,0.144000X-1.456000X1.456000X-1.456000X-1.456000X1.456000X-1.456000X1.456000X1.456000X0*%
%ADD31RoundRect,0.137500X-0.137500X0.137500X-0.137500X-0.137500X0.137500X-0.137500X0.137500X0.137500X0*%
%ADD32R,0.360000X0.270000*%
%ADD33RoundRect,0.137500X0.137500X0.137500X-0.137500X0.137500X-0.137500X-0.137500X0.137500X-0.137500X0*%
%ADD34RoundRect,0.147500X0.147500X0.172500X-0.147500X0.172500X-0.147500X-0.172500X0.147500X-0.172500X0*%
%ADD35C,1.552000*%
%ADD36RoundRect,0.075000X-0.150000X-0.075000X0.150000X-0.075000X0.150000X0.075000X-0.150000X0.075000X0*%
%ADD37RoundRect,0.062500X0.087500X-0.062500X0.087500X0.062500X-0.087500X0.062500X-0.087500X-0.062500X0*%
%ADD38R,0.940000X0.300000*%
%ADD39R,0.650000X0.850000*%
%ADD40O,0.250000X0.600000*%
%ADD41R,1.600000X0.200000*%
%ADD42RoundRect,0.075000X0.075000X-0.150000X0.075000X0.150000X-0.075000X0.150000X-0.075000X-0.150000X0*%
%ADD43RoundRect,0.375000X-0.375000X-0.625000X0.375000X-0.625000X0.375000X0.625000X-0.375000X0.625000X0*%
%ADD44RoundRect,0.147500X-0.147500X-0.172500X0.147500X-0.172500X0.147500X0.172500X-0.147500X0.172500X0*%
%ADD45R,0.650000X1.250000*%
%ADD46RoundRect,0.218750X0.218750X0.256250X-0.218750X0.256250X-0.218750X-0.256250X0.218750X-0.256250X0*%
%ADD47RoundRect,0.175000X-0.175000X0.275000X-0.175000X-0.275000X0.175000X-0.275000X0.175000X0.275000X0*%
%ADD48R,1.250000X0.650000*%
%ADD49C,0.990600*%
G04 APERTURE END LIST*
D10*
X147600000Y-97165000D02*
X140800000Y-97165000D01*
D11*
X173800000Y-86650000D02*
X173800000Y-87950000D01*
D10*
X169500000Y-86300000D02*
X169950000Y-86750000D01*
X147600000Y-90765000D02*
X147600000Y-97165000D01*
X166350000Y-86300000D02*
X169500000Y-86300000D01*
X140800000Y-97165000D02*
X140800000Y-95065000D01*
X140800000Y-90765000D02*
X147600000Y-90765000D01*
D12*
X140937500Y-90765000D02*
G75*
G03*
X140937500Y-90765000I-137500J0D01*
G01*
D10*
X140800000Y-92865000D02*
X140800000Y-90765000D01*
X169950000Y-86750000D02*
X173700000Y-86750000D01*
D13*
X134231847Y-97694139D02*
X134498514Y-98494139D01*
X134498514Y-98494139D02*
X134765180Y-97694139D01*
X134917561Y-97694139D02*
X135374704Y-97694139D01*
X135146132Y-98494139D02*
X135146132Y-97694139D01*
X135565180Y-97694139D02*
X136098514Y-98494139D01*
X136098514Y-97694139D02*
X135565180Y-98494139D01*
X134231847Y-87594139D02*
X134688990Y-87594139D01*
X134460418Y-88394139D02*
X134460418Y-87594139D01*
X134955657Y-88394139D02*
X134955657Y-87594139D01*
X134955657Y-87594139D02*
X135146133Y-87594139D01*
X135146133Y-87594139D02*
X135260419Y-87632234D01*
X135260419Y-87632234D02*
X135336609Y-87708424D01*
X135336609Y-87708424D02*
X135374704Y-87784615D01*
X135374704Y-87784615D02*
X135412800Y-87936996D01*
X135412800Y-87936996D02*
X135412800Y-88051282D01*
X135412800Y-88051282D02*
X135374704Y-88203663D01*
X135374704Y-88203663D02*
X135336609Y-88279853D01*
X135336609Y-88279853D02*
X135260419Y-88356044D01*
X135260419Y-88356044D02*
X135146133Y-88394139D01*
X135146133Y-88394139D02*
X134955657Y-88394139D01*
X135908038Y-87594139D02*
X136060419Y-87594139D01*
X136060419Y-87594139D02*
X136136609Y-87632234D01*
X136136609Y-87632234D02*
X136212800Y-87708424D01*
X136212800Y-87708424D02*
X136250895Y-87860805D01*
X136250895Y-87860805D02*
X136250895Y-88127472D01*
X136250895Y-88127472D02*
X136212800Y-88279853D01*
X136212800Y-88279853D02*
X136136609Y-88356044D01*
X136136609Y-88356044D02*
X136060419Y-88394139D01*
X136060419Y-88394139D02*
X135908038Y-88394139D01*
X135908038Y-88394139D02*
X135831847Y-88356044D01*
X135831847Y-88356044D02*
X135755657Y-88279853D01*
X135755657Y-88279853D02*
X135717561Y-88127472D01*
X135717561Y-88127472D02*
X135717561Y-87860805D01*
X135717561Y-87860805D02*
X135755657Y-87708424D01*
X135755657Y-87708424D02*
X135831847Y-87632234D01*
X135831847Y-87632234D02*
X135908038Y-87594139D01*
X134231847Y-90119139D02*
X134688990Y-90119139D01*
X134460418Y-90919139D02*
X134460418Y-90119139D01*
X134955657Y-90919139D02*
X134955657Y-90119139D01*
X134955657Y-90119139D02*
X135222323Y-90690567D01*
X135222323Y-90690567D02*
X135488990Y-90119139D01*
X135488990Y-90119139D02*
X135488990Y-90919139D01*
X135831847Y-90881044D02*
X135946133Y-90919139D01*
X135946133Y-90919139D02*
X136136609Y-90919139D01*
X136136609Y-90919139D02*
X136212800Y-90881044D01*
X136212800Y-90881044D02*
X136250895Y-90842948D01*
X136250895Y-90842948D02*
X136288990Y-90766758D01*
X136288990Y-90766758D02*
X136288990Y-90690567D01*
X136288990Y-90690567D02*
X136250895Y-90614377D01*
X136250895Y-90614377D02*
X136212800Y-90576282D01*
X136212800Y-90576282D02*
X136136609Y-90538186D01*
X136136609Y-90538186D02*
X135984228Y-90500091D01*
X135984228Y-90500091D02*
X135908038Y-90461996D01*
X135908038Y-90461996D02*
X135869943Y-90423901D01*
X135869943Y-90423901D02*
X135831847Y-90347710D01*
X135831847Y-90347710D02*
X135831847Y-90271520D01*
X135831847Y-90271520D02*
X135869943Y-90195329D01*
X135869943Y-90195329D02*
X135908038Y-90157234D01*
X135908038Y-90157234D02*
X135984228Y-90119139D01*
X135984228Y-90119139D02*
X136174705Y-90119139D01*
X136174705Y-90119139D02*
X136288990Y-90157234D01*
X134765180Y-95207234D02*
X134688990Y-95169139D01*
X134688990Y-95169139D02*
X134574704Y-95169139D01*
X134574704Y-95169139D02*
X134460418Y-95207234D01*
X134460418Y-95207234D02*
X134384228Y-95283424D01*
X134384228Y-95283424D02*
X134346133Y-95359615D01*
X134346133Y-95359615D02*
X134308037Y-95511996D01*
X134308037Y-95511996D02*
X134308037Y-95626282D01*
X134308037Y-95626282D02*
X134346133Y-95778663D01*
X134346133Y-95778663D02*
X134384228Y-95854853D01*
X134384228Y-95854853D02*
X134460418Y-95931044D01*
X134460418Y-95931044D02*
X134574704Y-95969139D01*
X134574704Y-95969139D02*
X134650895Y-95969139D01*
X134650895Y-95969139D02*
X134765180Y-95931044D01*
X134765180Y-95931044D02*
X134803276Y-95892948D01*
X134803276Y-95892948D02*
X134803276Y-95626282D01*
X134803276Y-95626282D02*
X134650895Y-95626282D01*
X135146133Y-95969139D02*
X135146133Y-95169139D01*
X135146133Y-95169139D02*
X135603276Y-95969139D01*
X135603276Y-95969139D02*
X135603276Y-95169139D01*
X135984228Y-95969139D02*
X135984228Y-95169139D01*
X135984228Y-95169139D02*
X136174704Y-95169139D01*
X136174704Y-95169139D02*
X136288990Y-95207234D01*
X136288990Y-95207234D02*
X136365180Y-95283424D01*
X136365180Y-95283424D02*
X136403275Y-95359615D01*
X136403275Y-95359615D02*
X136441371Y-95511996D01*
X136441371Y-95511996D02*
X136441371Y-95626282D01*
X136441371Y-95626282D02*
X136403275Y-95778663D01*
X136403275Y-95778663D02*
X136365180Y-95854853D01*
X136365180Y-95854853D02*
X136288990Y-95931044D01*
X136288990Y-95931044D02*
X136174704Y-95969139D01*
X136174704Y-95969139D02*
X135984228Y-95969139D01*
X134803276Y-93444139D02*
X134536609Y-93063186D01*
X134346133Y-93444139D02*
X134346133Y-92644139D01*
X134346133Y-92644139D02*
X134650895Y-92644139D01*
X134650895Y-92644139D02*
X134727085Y-92682234D01*
X134727085Y-92682234D02*
X134765180Y-92720329D01*
X134765180Y-92720329D02*
X134803276Y-92796520D01*
X134803276Y-92796520D02*
X134803276Y-92910805D01*
X134803276Y-92910805D02*
X134765180Y-92986996D01*
X134765180Y-92986996D02*
X134727085Y-93025091D01*
X134727085Y-93025091D02*
X134650895Y-93063186D01*
X134650895Y-93063186D02*
X134346133Y-93063186D01*
X135108037Y-93406044D02*
X135222323Y-93444139D01*
X135222323Y-93444139D02*
X135412799Y-93444139D01*
X135412799Y-93444139D02*
X135488990Y-93406044D01*
X135488990Y-93406044D02*
X135527085Y-93367948D01*
X135527085Y-93367948D02*
X135565180Y-93291758D01*
X135565180Y-93291758D02*
X135565180Y-93215567D01*
X135565180Y-93215567D02*
X135527085Y-93139377D01*
X135527085Y-93139377D02*
X135488990Y-93101282D01*
X135488990Y-93101282D02*
X135412799Y-93063186D01*
X135412799Y-93063186D02*
X135260418Y-93025091D01*
X135260418Y-93025091D02*
X135184228Y-92986996D01*
X135184228Y-92986996D02*
X135146133Y-92948901D01*
X135146133Y-92948901D02*
X135108037Y-92872710D01*
X135108037Y-92872710D02*
X135108037Y-92796520D01*
X135108037Y-92796520D02*
X135146133Y-92720329D01*
X135146133Y-92720329D02*
X135184228Y-92682234D01*
X135184228Y-92682234D02*
X135260418Y-92644139D01*
X135260418Y-92644139D02*
X135450895Y-92644139D01*
X135450895Y-92644139D02*
X135565180Y-92682234D01*
X135793752Y-92644139D02*
X136250895Y-92644139D01*
X136022323Y-93444139D02*
X136022323Y-92644139D01*
X136878571Y-96560472D02*
X136578571Y-96560472D01*
X136578571Y-97031901D02*
X136578571Y-96131901D01*
X136578571Y-96131901D02*
X137007143Y-96131901D01*
X137778572Y-97031901D02*
X137350000Y-97031901D01*
X137350000Y-97031901D02*
X137350000Y-96131901D01*
X138035714Y-96774758D02*
X138464286Y-96774758D01*
X137950000Y-97031901D02*
X138250000Y-96131901D01*
X138250000Y-96131901D02*
X138550000Y-97031901D01*
X138807143Y-96989044D02*
X138935715Y-97031901D01*
X138935715Y-97031901D02*
X139150000Y-97031901D01*
X139150000Y-97031901D02*
X139235715Y-96989044D01*
X139235715Y-96989044D02*
X139278572Y-96946186D01*
X139278572Y-96946186D02*
X139321429Y-96860472D01*
X139321429Y-96860472D02*
X139321429Y-96774758D01*
X139321429Y-96774758D02*
X139278572Y-96689044D01*
X139278572Y-96689044D02*
X139235715Y-96646186D01*
X139235715Y-96646186D02*
X139150000Y-96603329D01*
X139150000Y-96603329D02*
X138978572Y-96560472D01*
X138978572Y-96560472D02*
X138892857Y-96517615D01*
X138892857Y-96517615D02*
X138850000Y-96474758D01*
X138850000Y-96474758D02*
X138807143Y-96389044D01*
X138807143Y-96389044D02*
X138807143Y-96303329D01*
X138807143Y-96303329D02*
X138850000Y-96217615D01*
X138850000Y-96217615D02*
X138892857Y-96174758D01*
X138892857Y-96174758D02*
X138978572Y-96131901D01*
X138978572Y-96131901D02*
X139192857Y-96131901D01*
X139192857Y-96131901D02*
X139321429Y-96174758D01*
X139707143Y-97031901D02*
X139707143Y-96131901D01*
X139707143Y-96560472D02*
X140221429Y-96560472D01*
X140221429Y-97031901D02*
X140221429Y-96131901D01*
D14*
X130100000Y-89290000D02*
X130100000Y-89090000D01*
X130100000Y-91830000D02*
X130100000Y-91630000D01*
X130100000Y-94370000D02*
X130100000Y-94170000D01*
X130100000Y-96910000D02*
X130100000Y-96710000D01*
X134005000Y-89190000D02*
X130100000Y-89190000D01*
X134005000Y-91730000D02*
X130100000Y-91730000D01*
X134005000Y-94270000D02*
X130100000Y-94270000D01*
X134005000Y-96810000D02*
X130100000Y-96810000D01*
D15*
X141110000Y-90830000D02*
X142435000Y-90830000D01*
X142375000Y-97175000D02*
X142375000Y-97240000D01*
X142375000Y-97240000D02*
X145905000Y-97240000D01*
X142435000Y-90765000D02*
X142435000Y-90830000D01*
X142435000Y-90765000D02*
X145965000Y-90765000D01*
X145905000Y-97175000D02*
X145905000Y-97240000D01*
X145965000Y-90765000D02*
X145965000Y-90830000D01*
X175000000Y-97700000D02*
X177000000Y-97700000D01*
X178900000Y-97700000D02*
X179440000Y-97700000D01*
X175000000Y-88300000D02*
X177000000Y-88300000D01*
X178900000Y-88300000D02*
X179440000Y-88300000D01*
D16*
X150500000Y-99050000D02*
X148600000Y-99050000D01*
X150200000Y-94550000D02*
X148600000Y-94550000D01*
D15*
X159790000Y-90790000D02*
X160440000Y-90790000D01*
X167010000Y-91440000D02*
X167010000Y-90790000D01*
X159790000Y-91440000D02*
X159790000Y-90790000D01*
X167010000Y-97360000D02*
X167010000Y-98010000D01*
X159790000Y-97360000D02*
X159790000Y-98010000D01*
X167010000Y-98010000D02*
X166360000Y-98010000D01*
X159790000Y-98010000D02*
X160440000Y-98010000D01*
X152850000Y-93600000D02*
X152850000Y-92200000D01*
X152850000Y-92200000D02*
X151550000Y-92200000D01*
X151550000Y-94000000D02*
X152550000Y-94000000D01*
X151550000Y-92200000D02*
X151550000Y-94000000D01*
G36*
X174540644Y-87402156D02*
G01*
X174590412Y-87514789D01*
X174572950Y-87592497D01*
X174528421Y-87639646D01*
X174466429Y-87662347D01*
X174394832Y-87668459D01*
X174341572Y-87666713D01*
X174291804Y-87661474D01*
X174291804Y-87368104D01*
X174407056Y-87368104D01*
X174540644Y-87402156D01*
G37*
G36*
X174447220Y-86939399D02*
G01*
X174496115Y-86956862D01*
X174529294Y-86993533D01*
X174541517Y-87055525D01*
X174499607Y-87154188D01*
X174375624Y-87189986D01*
X174291804Y-87189986D01*
X174291804Y-86942019D01*
X174338952Y-86936780D01*
X174389594Y-86935034D01*
X174447220Y-86939399D01*
G37*
G36*
X175381464Y-86952496D02*
G01*
X175432978Y-87032824D01*
X175457426Y-87152442D01*
X175462010Y-87223820D01*
X175463537Y-87300000D01*
X175462010Y-87375962D01*
X175457426Y-87446685D01*
X175432978Y-87566303D01*
X175380591Y-87647504D01*
X175292405Y-87677190D01*
X175203346Y-87647504D01*
X175151832Y-87567176D01*
X175127384Y-87447558D01*
X175122800Y-87376180D01*
X175121272Y-87300000D01*
X175122800Y-87224038D01*
X175127384Y-87153315D01*
X175151832Y-87033697D01*
X175203346Y-86952496D01*
X175292405Y-86922810D01*
X175381464Y-86952496D01*
G37*
G36*
X176254589Y-86952496D02*
G01*
X176306103Y-87032824D01*
X176330551Y-87152442D01*
X176335135Y-87223820D01*
X176336662Y-87300000D01*
X176335135Y-87375962D01*
X176330551Y-87446685D01*
X176306103Y-87566303D01*
X176253716Y-87647504D01*
X176165530Y-87677190D01*
X176076471Y-87647504D01*
X176024957Y-87567176D01*
X176000509Y-87447558D01*
X175995925Y-87376180D01*
X175994397Y-87300000D01*
X175995925Y-87224038D01*
X176000509Y-87153315D01*
X176024957Y-87033697D01*
X176076471Y-86952496D01*
X176165530Y-86922810D01*
X176254589Y-86952496D01*
G37*
G36*
X174077015Y-86517680D02*
G01*
X177431561Y-86517680D01*
X177431707Y-86517680D01*
X177508388Y-86521447D01*
X177584330Y-86532712D01*
X177658802Y-86551366D01*
X177731088Y-86577231D01*
X177800490Y-86610055D01*
X177866340Y-86649525D01*
X177928005Y-86695258D01*
X177984890Y-86746816D01*
X178036448Y-86803701D01*
X178082182Y-86865366D01*
X178121651Y-86931217D01*
X178154476Y-87000619D01*
X178180340Y-87072905D01*
X178198995Y-87147377D01*
X178210260Y-87223319D01*
X178214027Y-87300000D01*
X178210260Y-87376681D01*
X178198995Y-87452623D01*
X178180340Y-87527095D01*
X178154476Y-87599381D01*
X178121651Y-87668783D01*
X178082182Y-87734634D01*
X178036448Y-87796299D01*
X177984890Y-87853184D01*
X177928005Y-87904742D01*
X177866340Y-87950475D01*
X177800490Y-87989945D01*
X177731088Y-88022769D01*
X177658802Y-88048634D01*
X177584330Y-88067288D01*
X177508388Y-88078553D01*
X177431707Y-88082320D01*
X177431561Y-88082320D01*
X174077015Y-88082320D01*
X173785973Y-88082320D01*
X173785973Y-87823875D01*
X174077015Y-87823875D01*
X174152540Y-87837627D01*
X174228939Y-87847449D01*
X174304464Y-87853343D01*
X174377370Y-87855308D01*
X174463591Y-87851160D01*
X174544137Y-87838718D01*
X174616606Y-87816453D01*
X174678598Y-87782838D01*
X174768530Y-87678063D01*
X174793414Y-87604502D01*
X174801709Y-87514789D01*
X174791886Y-87441446D01*
X174762418Y-87371596D01*
X174705447Y-87310478D01*
X174684928Y-87300000D01*
X174902991Y-87300000D01*
X174909267Y-87431132D01*
X174928094Y-87545130D01*
X174959472Y-87641992D01*
X175003401Y-87721719D01*
X175080333Y-87800786D01*
X175177249Y-87848225D01*
X175294151Y-87864039D01*
X175408240Y-87848225D01*
X175503701Y-87800786D01*
X175580536Y-87721719D01*
X175624847Y-87641992D01*
X175656498Y-87545130D01*
X175675489Y-87431132D01*
X175681819Y-87300000D01*
X175776116Y-87300000D01*
X175782392Y-87431132D01*
X175801219Y-87545130D01*
X175832597Y-87641992D01*
X175876526Y-87721719D01*
X175953458Y-87800786D01*
X176050374Y-87848225D01*
X176167276Y-87864039D01*
X176281365Y-87848225D01*
X176376826Y-87800786D01*
X176453661Y-87721719D01*
X176497972Y-87641992D01*
X176529623Y-87545130D01*
X176548614Y-87431132D01*
X176554944Y-87300000D01*
X176548723Y-87168868D01*
X176530060Y-87054870D01*
X176498955Y-86958008D01*
X176455407Y-86878281D01*
X176378961Y-86799214D01*
X176299921Y-86760409D01*
X176645749Y-86760409D01*
X176645749Y-86938526D01*
X176930387Y-86938526D01*
X176930387Y-87841338D01*
X177146922Y-87841338D01*
X177146922Y-86938526D01*
X177431561Y-86938526D01*
X177431561Y-86760409D01*
X176645749Y-86760409D01*
X176299921Y-86760409D01*
X176282335Y-86751775D01*
X176165530Y-86735961D01*
X176052218Y-86751775D01*
X175956756Y-86799214D01*
X175879145Y-86878281D01*
X175834070Y-86958008D01*
X175801873Y-87054870D01*
X175782556Y-87168868D01*
X175776116Y-87300000D01*
X175681819Y-87300000D01*
X175675598Y-87168868D01*
X175656935Y-87054870D01*
X175625830Y-86958008D01*
X175582282Y-86878281D01*
X175505836Y-86799214D01*
X175409210Y-86751775D01*
X175292405Y-86735961D01*
X175179093Y-86751775D01*
X175083631Y-86799214D01*
X175006020Y-86878281D01*
X174960945Y-86958008D01*
X174928748Y-87054870D01*
X174909431Y-87168868D01*
X174902991Y-87300000D01*
X174684928Y-87300000D01*
X174613114Y-87263329D01*
X174713523Y-87169031D01*
X174741681Y-87105293D01*
X174751067Y-87032824D01*
X174735351Y-86931541D01*
X174675979Y-86839863D01*
X174555487Y-86773506D01*
X174467302Y-86754515D01*
X174356415Y-86748185D01*
X174211476Y-86756043D01*
X174077015Y-86774379D01*
X174077015Y-87823875D01*
X173785973Y-87823875D01*
X173785973Y-86517680D01*
X174077015Y-86517680D01*
G37*
D14*
X157540000Y-86900000D02*
G75*
G03*
X157540000Y-86900000I-50000J0D01*
G01*
D16*
X144100000Y-86800000D02*
X145700000Y-86800000D01*
X145700000Y-88600000D02*
X144500000Y-88600000D01*
D15*
X152850000Y-96100000D02*
X152850000Y-94700000D01*
X152850000Y-94700000D02*
X151550000Y-94700000D01*
X151550000Y-96500000D02*
X152550000Y-96500000D01*
X151550000Y-94700000D02*
X151550000Y-96500000D01*
G36*
X141626231Y-98217479D02*
G01*
X141627025Y-98244466D01*
X141617897Y-98314713D01*
X141590513Y-98369879D01*
X141543681Y-98405597D01*
X141476213Y-98417504D01*
X141365881Y-98373054D01*
X141336711Y-98314713D01*
X141326988Y-98228591D01*
X141326988Y-98185729D01*
X141622263Y-98185729D01*
X141626231Y-98217479D01*
G37*
G36*
X141995325Y-97990334D02*
G01*
X141995325Y-97990466D01*
X141995325Y-99474779D01*
X141995325Y-99673216D01*
X140604675Y-99673216D01*
X140604675Y-99474779D01*
X140604675Y-98715954D01*
X140803112Y-98715954D01*
X140803112Y-98927091D01*
X140889036Y-98963604D01*
X140984881Y-99006466D01*
X141083902Y-99052504D01*
X141179350Y-99098541D01*
X141080925Y-99145174D01*
X140982500Y-99189822D01*
X140888441Y-99230105D01*
X140803112Y-99263641D01*
X140803112Y-99474779D01*
X140907094Y-99431916D01*
X140970594Y-99402746D01*
X141038856Y-99369210D01*
X141110492Y-99332102D01*
X141184112Y-99292216D01*
X141257137Y-99250544D01*
X141326988Y-99208079D01*
X141785775Y-99458904D01*
X141785775Y-99262054D01*
X141471450Y-99098541D01*
X141785775Y-98942966D01*
X141785775Y-98731829D01*
X141322225Y-98989004D01*
X141252573Y-98950110D01*
X141180144Y-98909629D01*
X141107317Y-98869346D01*
X141036475Y-98831047D01*
X140969006Y-98795329D01*
X140906300Y-98762785D01*
X140803112Y-98715954D01*
X140604675Y-98715954D01*
X140604675Y-97990466D01*
X140803112Y-97990466D01*
X140803112Y-98185729D01*
X141165062Y-98185729D01*
X141165062Y-98287329D01*
X141075170Y-98341105D01*
X140986469Y-98391310D01*
X140896577Y-98436752D01*
X140803112Y-98476241D01*
X140803112Y-98681029D01*
X140907094Y-98635785D01*
X141016631Y-98581016D01*
X141121406Y-98522279D01*
X141212687Y-98465129D01*
X141257534Y-98534582D01*
X141319050Y-98581016D01*
X141392869Y-98607210D01*
X141474625Y-98615941D01*
X141551817Y-98609393D01*
X141618294Y-98589747D01*
X141719100Y-98514341D01*
X141753628Y-98460366D01*
X141777838Y-98396866D01*
X141792125Y-98324635D01*
X141796888Y-98244466D01*
X141795300Y-98188904D01*
X141791331Y-98122229D01*
X141783394Y-98053172D01*
X141771488Y-97990466D01*
X140803112Y-97990466D01*
X140604675Y-97990466D01*
X140604675Y-97990334D01*
X141300000Y-97526784D01*
X141995325Y-97990334D01*
G37*
X154075000Y-88300000D02*
X154075000Y-87100000D01*
X152655000Y-87700000D02*
X152655000Y-87100000D01*
X154850000Y-95100000D02*
X154850000Y-93700000D01*
X154850000Y-93700000D02*
X153550000Y-93700000D01*
X153550000Y-95500000D02*
X154550000Y-95500000D01*
X153550000Y-93700000D02*
X153550000Y-95500000D01*
X171450000Y-98850000D02*
X171450000Y-97700000D01*
X169550000Y-99300000D02*
X169550000Y-97700000D01*
D16*
X167850000Y-90150000D02*
X167850000Y-93250000D01*
X170150000Y-90700000D02*
X170150000Y-93200000D01*
D10*
X170350000Y-90300000D02*
G75*
G03*
X170350000Y-90300000I-100000J0D01*
G01*
D16*
X169800000Y-96100000D02*
X169800000Y-94500000D01*
X171600000Y-94500000D02*
X171600000Y-95700000D01*
G36*
X147889769Y-97704055D02*
G01*
X147889769Y-99234405D01*
X147889769Y-99234537D01*
X147200000Y-99694383D01*
X146510231Y-99234537D01*
X146510231Y-99234405D01*
X146510231Y-98475580D01*
X146708669Y-98475580D01*
X146708669Y-98686717D01*
X146794592Y-98723230D01*
X146890437Y-98766092D01*
X146989458Y-98812130D01*
X147084906Y-98858167D01*
X146986481Y-98904800D01*
X146888056Y-98949448D01*
X146793997Y-98989731D01*
X146708669Y-99023267D01*
X146708669Y-99234405D01*
X146812650Y-99191542D01*
X146876150Y-99162372D01*
X146944412Y-99128836D01*
X147016048Y-99091728D01*
X147089669Y-99051842D01*
X147162694Y-99010170D01*
X147232544Y-98967705D01*
X147691331Y-99218530D01*
X147691331Y-99021680D01*
X147377006Y-98858167D01*
X147691331Y-98702592D01*
X147691331Y-98491455D01*
X147227781Y-98748630D01*
X147158130Y-98709736D01*
X147085700Y-98669255D01*
X147012873Y-98628972D01*
X146942031Y-98590673D01*
X146874562Y-98554955D01*
X146811856Y-98522411D01*
X146708669Y-98475580D01*
X146510231Y-98475580D01*
X146510231Y-98159667D01*
X146708669Y-98159667D01*
X147529406Y-98159667D01*
X147529406Y-98418430D01*
X147691331Y-98418430D01*
X147691331Y-97704055D01*
X147529406Y-97704055D01*
X147529406Y-97962817D01*
X146708669Y-97962817D01*
X146708669Y-98159667D01*
X146510231Y-98159667D01*
X146510231Y-97704055D01*
X146510231Y-97505617D01*
X147889769Y-97505617D01*
X147889769Y-97704055D01*
G37*
D15*
X151560000Y-88300000D02*
X151560000Y-87100000D01*
X150140000Y-87700000D02*
X150140000Y-87100000D01*
X152850000Y-98600000D02*
X152850000Y-97200000D01*
X152850000Y-97200000D02*
X151550000Y-97200000D01*
X151550000Y-99000000D02*
X152550000Y-99000000D01*
X151550000Y-97200000D02*
X151550000Y-99000000D01*
X154850000Y-92600000D02*
X154850000Y-91200000D01*
X154850000Y-91200000D02*
X153550000Y-91200000D01*
X153550000Y-93000000D02*
X154550000Y-93000000D01*
X153550000Y-91200000D02*
X153550000Y-93000000D01*
D14*
X148060000Y-91150000D02*
G75*
G03*
X148060000Y-91150000I-50000J0D01*
G01*
D15*
X136700000Y-95200000D02*
X136820000Y-95200000D01*
X137830000Y-95200000D02*
X138970000Y-95200000D01*
X139980000Y-95200000D02*
X140100000Y-95200000D01*
X140100000Y-95200000D02*
X140100000Y-90800000D01*
X136700000Y-90800000D02*
X136700000Y-95200000D01*
X136820000Y-90800000D02*
X136700000Y-90800000D01*
X138970000Y-90800000D02*
X137830000Y-90800000D01*
X140100000Y-90800000D02*
X139980000Y-90800000D01*
X170212779Y-89360000D02*
X169887221Y-89360000D01*
X170212779Y-88340000D02*
X169887221Y-88340000D01*
X154850000Y-97600000D02*
X154850000Y-96200000D01*
X154850000Y-96200000D02*
X153550000Y-96200000D01*
X153550000Y-98000000D02*
X154550000Y-98000000D01*
X153550000Y-96200000D02*
X153550000Y-98000000D01*
D16*
X157300000Y-90250000D02*
X156800000Y-90250000D01*
X156800000Y-90250000D02*
X156800000Y-90700000D01*
D15*
X155960000Y-89775000D02*
X155960000Y-88575000D01*
X154540000Y-89175000D02*
X154540000Y-88575000D01*
X161700000Y-86300000D02*
X161700000Y-86420000D01*
X161700000Y-87430000D02*
X161700000Y-88570000D01*
X161700000Y-89580000D02*
X161700000Y-89700000D01*
X161700000Y-89700000D02*
X166100000Y-89700000D01*
X166100000Y-86300000D02*
X161700000Y-86300000D01*
X166100000Y-86420000D02*
X166100000Y-86300000D01*
X166100000Y-88570000D02*
X166100000Y-87430000D01*
X166100000Y-89700000D02*
X166100000Y-89580000D01*
%LPC*%
D17*
X132100000Y-87920000D03*
X132100000Y-90460000D03*
X132100000Y-93000000D03*
X132100000Y-95540000D03*
X132100000Y-98080000D03*
D18*
X142250000Y-91460000D03*
X146150000Y-91460000D03*
X142250000Y-92730000D03*
X146150000Y-92730000D03*
X142250000Y-94000000D03*
X146150000Y-94000000D03*
X142250000Y-95270000D03*
X146150000Y-95270000D03*
X142250000Y-96540000D03*
X146150000Y-96540000D03*
D19*
X174300000Y-95890000D03*
X174300000Y-90110000D03*
D20*
X172855000Y-96250000D03*
X172855000Y-95450000D03*
D21*
X172855000Y-94250000D03*
X172855000Y-93250000D03*
X172855000Y-92750000D03*
X172855000Y-91750000D03*
D20*
X172855000Y-90550000D03*
X172855000Y-89750000D03*
X172855000Y-89750000D03*
X172855000Y-90550000D03*
D21*
X172855000Y-91250000D03*
X172855000Y-92250000D03*
X172855000Y-93750000D03*
X172855000Y-94750000D03*
D20*
X172855000Y-95450000D03*
X172855000Y-96250000D03*
D22*
X173770000Y-97320000D03*
D23*
X177950000Y-97320000D03*
D22*
X173770000Y-88680000D03*
D23*
X177950000Y-88680000D03*
D24*
X150225000Y-98550000D03*
X150225000Y-98050000D03*
X150225000Y-97550000D03*
X150225000Y-97050000D03*
X150225000Y-96550000D03*
X150225000Y-96050000D03*
X150225000Y-95550000D03*
X150225000Y-95050000D03*
X148575000Y-95050000D03*
X148575000Y-95550000D03*
X148575000Y-96050000D03*
X148575000Y-96550000D03*
X148575000Y-97050000D03*
X148575000Y-97550000D03*
X148575000Y-98050000D03*
X148575000Y-98550000D03*
D25*
X149400000Y-96800000D03*
D26*
X170150000Y-87250000D03*
X171050000Y-87250000D03*
X147975000Y-92100000D03*
X148875000Y-92100000D03*
D27*
X170700000Y-91050000D03*
X170700000Y-90150000D03*
D28*
X166000000Y-90962500D03*
X165600000Y-90962500D03*
X165200000Y-90962500D03*
X164800000Y-90962500D03*
X164400000Y-90962500D03*
X164000000Y-90962500D03*
X163600000Y-90962500D03*
X163200000Y-90962500D03*
X162800000Y-90962500D03*
X162400000Y-90962500D03*
X162000000Y-90962500D03*
X161600000Y-90962500D03*
X161200000Y-90962500D03*
X160800000Y-90962500D03*
D29*
X159962500Y-91800000D03*
X159962500Y-92200000D03*
X159962500Y-92600000D03*
X159962500Y-93000000D03*
X159962500Y-93400000D03*
X159962500Y-93800000D03*
X159962500Y-94200000D03*
X159962500Y-94600000D03*
X159962500Y-95000000D03*
X159962500Y-95400000D03*
X159962500Y-95800000D03*
X159962500Y-96200000D03*
X159962500Y-96600000D03*
X159962500Y-97000000D03*
D28*
X160800000Y-97837500D03*
X161200000Y-97837500D03*
X161600000Y-97837500D03*
X162000000Y-97837500D03*
X162400000Y-97837500D03*
X162800000Y-97837500D03*
X163200000Y-97837500D03*
X163600000Y-97837500D03*
X164000000Y-97837500D03*
X164400000Y-97837500D03*
X164800000Y-97837500D03*
X165200000Y-97837500D03*
X165600000Y-97837500D03*
X166000000Y-97837500D03*
D29*
X166837500Y-97000000D03*
X166837500Y-96600000D03*
X166837500Y-96200000D03*
X166837500Y-95800000D03*
X166837500Y-95400000D03*
X166837500Y-95000000D03*
X166837500Y-94600000D03*
X166837500Y-94200000D03*
X166837500Y-93800000D03*
X166837500Y-93400000D03*
X166837500Y-93000000D03*
X166837500Y-92600000D03*
X166837500Y-92200000D03*
X166837500Y-91800000D03*
D30*
X163400000Y-94400000D03*
D31*
X156400000Y-90650000D03*
X156400000Y-91550000D03*
D32*
X152545000Y-93600000D03*
X152545000Y-93100000D03*
X152545000Y-92600000D03*
X151855000Y-92600000D03*
X151855000Y-93100000D03*
X151855000Y-93600000D03*
D33*
X163850000Y-99200000D03*
X162950000Y-99200000D03*
D34*
X156885000Y-86900000D03*
X155915000Y-86900000D03*
D26*
X154250000Y-90650000D03*
X155150000Y-90650000D03*
D35*
X179000000Y-99000000D03*
D27*
X159900000Y-89950000D03*
X159900000Y-89050000D03*
D26*
X155550000Y-92800000D03*
X156450000Y-92800000D03*
D27*
X156300000Y-99350000D03*
X156300000Y-98450000D03*
D33*
X148875000Y-93000000D03*
X147975000Y-93000000D03*
D26*
X155550000Y-96200000D03*
X156450000Y-96200000D03*
D33*
X153500000Y-89200000D03*
X152600000Y-89200000D03*
X158350000Y-93700000D03*
X157450000Y-93700000D03*
D36*
X144400000Y-87200000D03*
X144400000Y-87700000D03*
X144400000Y-88200000D03*
X145800000Y-88200000D03*
X145800000Y-87700000D03*
X145800000Y-87200000D03*
D32*
X152545000Y-96100000D03*
X152545000Y-95600000D03*
X152545000Y-95100000D03*
X151855000Y-95100000D03*
X151855000Y-95600000D03*
X151855000Y-96100000D03*
D33*
X162150000Y-99200000D03*
X161250000Y-99200000D03*
D26*
X148450000Y-89100000D03*
X149350000Y-89100000D03*
D31*
X149400000Y-87250000D03*
X149400000Y-88150000D03*
D33*
X155675000Y-87825000D03*
X154775000Y-87825000D03*
D31*
X169200000Y-86850000D03*
X169200000Y-87750000D03*
X168300000Y-86850000D03*
X168300000Y-87750000D03*
D26*
X153550000Y-99300000D03*
X154450000Y-99300000D03*
X169850000Y-96700000D03*
X170750000Y-96700000D03*
D37*
X152965000Y-88175000D03*
X153365000Y-88175000D03*
X153765000Y-88175000D03*
X153765000Y-87225000D03*
X153365000Y-87225000D03*
X152965000Y-87225000D03*
D38*
X153365000Y-87700000D03*
D31*
X152100000Y-87200000D03*
X152100000Y-88100000D03*
D27*
X150600000Y-91000000D03*
X150600000Y-90100000D03*
D33*
X175600000Y-98750000D03*
X174700000Y-98750000D03*
D27*
X151450000Y-90000000D03*
X151450000Y-89100000D03*
D32*
X154545000Y-95100000D03*
X154545000Y-94600000D03*
X154545000Y-94100000D03*
X153855000Y-94100000D03*
X153855000Y-94600000D03*
X153855000Y-95100000D03*
D39*
X170925000Y-99225000D03*
X170075000Y-99225000D03*
X170075000Y-97775000D03*
X170925000Y-97775000D03*
D26*
X168150000Y-96500000D03*
X169050000Y-96500000D03*
X148450000Y-90000000D03*
X149350000Y-90000000D03*
D31*
X156750000Y-88850000D03*
X156750000Y-89750000D03*
D40*
X169750000Y-90350000D03*
X169250000Y-90350000D03*
X168750000Y-90350000D03*
X168250000Y-90350000D03*
X168250000Y-93050000D03*
X168750000Y-93050000D03*
X169250000Y-93050000D03*
X169750000Y-93050000D03*
D41*
X169000000Y-91700000D03*
D31*
X157650000Y-88850000D03*
X157650000Y-89750000D03*
X148500000Y-87250000D03*
X148500000Y-88150000D03*
D27*
X150800000Y-93950000D03*
X150800000Y-93050000D03*
D42*
X170200000Y-95800000D03*
X170700000Y-95800000D03*
X171200000Y-95800000D03*
X171200000Y-94400000D03*
X170700000Y-94400000D03*
X170200000Y-94400000D03*
D33*
X143450000Y-89100000D03*
X142550000Y-89100000D03*
D26*
X155550000Y-97600000D03*
X156450000Y-97600000D03*
D31*
X139900000Y-87350000D03*
X139900000Y-88250000D03*
D35*
X138000000Y-98500000D03*
D31*
X140900000Y-87350000D03*
X140900000Y-88250000D03*
D37*
X150450000Y-88175000D03*
X150850000Y-88175000D03*
X151250000Y-88175000D03*
X151250000Y-87225000D03*
X150850000Y-87225000D03*
X150450000Y-87225000D03*
D38*
X150850000Y-87700000D03*
D32*
X152545000Y-98600000D03*
X152545000Y-98100000D03*
X152545000Y-97600000D03*
X151855000Y-97600000D03*
X151855000Y-98100000D03*
X151855000Y-98600000D03*
D35*
X138000000Y-87500000D03*
D43*
X142960000Y-98800000D03*
D33*
X165550000Y-99200000D03*
X164650000Y-99200000D03*
X169050000Y-98500000D03*
X168150000Y-98500000D03*
D32*
X154545000Y-92600000D03*
X154545000Y-92100000D03*
X154545000Y-91600000D03*
X153855000Y-91600000D03*
X153855000Y-92100000D03*
X153855000Y-92600000D03*
D43*
X145500000Y-98800000D03*
D27*
X159000000Y-99350000D03*
X159000000Y-98450000D03*
D33*
X158750000Y-95500000D03*
X157850000Y-95500000D03*
D35*
X179000000Y-87000000D03*
D33*
X153500000Y-90050000D03*
X152600000Y-90050000D03*
D26*
X168150000Y-94200000D03*
X169050000Y-94200000D03*
D33*
X149150000Y-94100000D03*
X148250000Y-94100000D03*
D26*
X155550000Y-95200000D03*
X156450000Y-95200000D03*
X168150000Y-97600000D03*
X169050000Y-97600000D03*
D27*
X170700000Y-93250000D03*
X170700000Y-92350000D03*
D44*
X148615000Y-91150000D03*
X149585000Y-91150000D03*
D33*
X152300000Y-91350000D03*
X151400000Y-91350000D03*
D26*
X141000000Y-90050000D03*
X141900000Y-90050000D03*
D45*
X137325000Y-95175000D03*
X137325000Y-90825000D03*
X139475000Y-95175000D03*
X139475000Y-90825000D03*
D26*
X144750000Y-89100000D03*
X145650000Y-89100000D03*
D27*
X157200000Y-99350000D03*
X157200000Y-98450000D03*
D46*
X170837500Y-88850000D03*
X169262500Y-88850000D03*
D33*
X167350000Y-99100000D03*
X166450000Y-99100000D03*
D32*
X154545000Y-97600000D03*
X154545000Y-97100000D03*
X154545000Y-96600000D03*
X153855000Y-96600000D03*
X153855000Y-97100000D03*
X153855000Y-97600000D03*
D31*
X143300000Y-87250000D03*
X143300000Y-88150000D03*
D33*
X158750000Y-94600000D03*
X157850000Y-94600000D03*
D47*
X157350000Y-90900000D03*
X157350000Y-92700000D03*
X158850000Y-92675000D03*
X158850000Y-90925000D03*
D27*
X158100000Y-87775000D03*
X158100000Y-86875000D03*
D33*
X173600000Y-98750000D03*
X172700000Y-98750000D03*
D27*
X159900000Y-87775000D03*
X159900000Y-86875000D03*
D37*
X154850000Y-89650000D03*
X155250000Y-89650000D03*
X155650000Y-89650000D03*
X155650000Y-88700000D03*
X155250000Y-88700000D03*
X154850000Y-88700000D03*
D38*
X155250000Y-89175000D03*
D48*
X161725000Y-86925000D03*
X166075000Y-86925000D03*
X161725000Y-89075000D03*
X166075000Y-89075000D03*
D27*
X158100000Y-99350000D03*
X158100000Y-98450000D03*
D31*
X159000000Y-88075000D03*
X159000000Y-88975000D03*
X149650000Y-92100000D03*
X149650000Y-93000000D03*
D26*
X171850000Y-87250000D03*
X172750000Y-87250000D03*
X168150000Y-95100000D03*
X169050000Y-95100000D03*
D33*
X141700000Y-89100000D03*
X140800000Y-89100000D03*
D49*
X141960000Y-87800000D03*
X147040000Y-86784000D03*
X147040000Y-88816000D03*
%LPD*%
M02*
