G04 #@! TF.GenerationSoftware,KiCad,Pcbnew,7.0.7*
G04 #@! TF.CreationDate,2024-03-21T15:18:08+09:00*
G04 #@! TF.ProjectId,rs-probe,72732d70-726f-4626-952e-6b696361645f,rev?*
G04 #@! TF.SameCoordinates,Original*
G04 #@! TF.FileFunction,Glue,Top*
G04 #@! TF.FilePolarity,Positive*
%FSLAX46Y46*%
G04 Gerber Fmt 4.6, Leading zero omitted, Abs format (unit mm)*
G04 Created by KiCad (PCBNEW 7.0.7) date 2024-03-21 15:18:08*
%MOMM*%
%LPD*%
G01*
G04 APERTURE LIST*
%ADD10C,0.100000*%
G04 APERTURE END LIST*
D10*
X169700000Y-98800000D02*
X171600000Y-98800000D01*
X171600000Y-99300000D01*
X169700000Y-99300000D01*
X169700000Y-98800000D01*
G36*
X169700000Y-98800000D02*
G01*
X171600000Y-98800000D01*
X171600000Y-99300000D01*
X169700000Y-99300000D01*
X169700000Y-98800000D01*
G37*
X169700000Y-86800000D02*
X171600000Y-86800000D01*
X171600000Y-98800000D01*
X169700000Y-98800000D01*
X169700000Y-86800000D01*
G36*
X169700000Y-86800000D02*
G01*
X171600000Y-86800000D01*
X171600000Y-98800000D01*
X169700000Y-98800000D01*
X169700000Y-86800000D01*
G37*
X160400000Y-90000000D02*
X169700000Y-90000000D01*
X169700000Y-99800000D01*
X160400000Y-99800000D01*
X160400000Y-90000000D01*
G36*
X160400000Y-90000000D02*
G01*
X169700000Y-90000000D01*
X169700000Y-99800000D01*
X160400000Y-99800000D01*
X160400000Y-90000000D01*
G37*
X147700000Y-86300000D02*
X160400000Y-86300000D01*
X160400000Y-99800000D01*
X147700000Y-99800000D01*
X147700000Y-86300000D01*
G36*
X147700000Y-86300000D02*
G01*
X160400000Y-86300000D01*
X160400000Y-99800000D01*
X147700000Y-99800000D01*
X147700000Y-86300000D01*
G37*
X167500000Y-86400000D02*
X169700000Y-86400000D01*
X169700000Y-90000000D01*
X167500000Y-90000000D01*
X167500000Y-86400000D01*
G36*
X167500000Y-86400000D02*
G01*
X169700000Y-86400000D01*
X169700000Y-90000000D01*
X167500000Y-90000000D01*
X167500000Y-86400000D01*
G37*
X171600000Y-98200000D02*
X176200000Y-98200000D01*
X176200000Y-99300000D01*
X171600000Y-99300000D01*
X171600000Y-98200000D01*
G36*
X171600000Y-98200000D02*
G01*
X176200000Y-98200000D01*
X176200000Y-99300000D01*
X171600000Y-99300000D01*
X171600000Y-98200000D01*
G37*
X142700000Y-86400000D02*
X146300000Y-86400000D01*
X146300000Y-89800000D01*
X142700000Y-89800000D01*
X142700000Y-86400000D01*
G36*
X142700000Y-86400000D02*
G01*
X146300000Y-86400000D01*
X146300000Y-89800000D01*
X142700000Y-89800000D01*
X142700000Y-86400000D01*
G37*
X171600000Y-86800000D02*
X173450000Y-86800000D01*
X173450000Y-87800000D01*
X171600000Y-87800000D01*
X171600000Y-86800000D01*
G36*
X171600000Y-86800000D02*
G01*
X173450000Y-86800000D01*
X173450000Y-87800000D01*
X171600000Y-87800000D01*
X171600000Y-86800000D01*
G37*
X140550000Y-87000000D02*
X141350000Y-87000000D01*
X141350000Y-88550000D01*
X140550000Y-88550000D01*
X140550000Y-87000000D01*
G36*
X140550000Y-87000000D02*
G01*
X141350000Y-87000000D01*
X141350000Y-88550000D01*
X140550000Y-88550000D01*
X140550000Y-87000000D01*
G37*
X140550000Y-88550000D02*
X142700000Y-88550000D01*
X142700000Y-90800000D01*
X140550000Y-90800000D01*
X140550000Y-88550000D01*
G36*
X140550000Y-88550000D02*
G01*
X142700000Y-88550000D01*
X142700000Y-90800000D01*
X140550000Y-90800000D01*
X140550000Y-88550000D01*
G37*
X169700000Y-99300000D02*
X171300000Y-99300000D01*
X171300000Y-99800000D01*
X169700000Y-99800000D01*
X169700000Y-99300000D01*
G36*
X169700000Y-99300000D02*
G01*
X171300000Y-99300000D01*
X171300000Y-99800000D01*
X169700000Y-99800000D01*
X169700000Y-99300000D01*
G37*
M02*
