M48
; DRILL file {KiCad 7.0.7} date Thu Mar 21 15:18:13 2024
; FORMAT={-:-/ absolute / inch / decimal}
; #@! TF.CreationDate,2024-03-21T15:18:13+09:00
; #@! TF.GenerationSoftware,Kicad,Pcbnew,7.0.7
; #@! TF.FileFunction,Plated,1,4,PTH
FMAT,2
INCH
; #@! TA.AperFunction,Plated,PTH,ViaDrill
T1C0.0079
; #@! TA.AperFunction,Plated,PTH,ViaDrill
T2C0.0118
; #@! TA.AperFunction,Plated,PTH,ComponentDrill
T3C0.0118
; #@! TA.AperFunction,Plated,PTH,ComponentDrill
T4C0.0236
; #@! TA.AperFunction,Plated,PTH,ComponentDrill
T5C0.0454
%
G90
G05
T1
X5.3016Y-3.5614
X5.3386Y-3.4614
X5.3425Y-3.5315
X5.3465Y-3.7362
X5.3465Y-3.816
X5.4173Y-3.6959
X5.4606Y-3.6614
X5.4823Y-3.5896
X5.4823Y-3.7431
X5.5049Y-3.6831
X5.5079Y-3.4252
X5.5089Y-3.6236
X5.5197Y-3.5118
X5.5197Y-3.8179
X5.5236Y-3.5709
X5.5315Y-3.4744
X5.685Y-3.7283
X6.0339Y-3.8969
X6.4783Y-3.6161
X6.4931Y-3.6358
X6.6811Y-3.7008
X6.6998Y-3.6752
X6.7087Y-3.75
X6.828Y-3.4067
X7.0051Y-3.5864
X7.0051Y-3.6358
T2
X5.5591Y-3.4035
X5.563Y-3.7008
X5.5827Y-3.6496
X5.5827Y-3.8858
X5.5827Y-3.9173
X5.6102Y-3.5433
X5.622Y-3.6063
X5.626Y-3.4035
X5.6299Y-3.5295
X5.6339Y-3.6535
X5.6378Y-3.7047
X5.6378Y-3.7992
X5.6378Y-3.8622
X5.6378Y-3.9094
X5.6575Y-3.4134
X5.6594Y-3.7717
X5.6614Y-3.4567
X5.6781Y-3.8622
X5.6781Y-3.9094
X5.7165Y-3.6024
X5.7165Y-3.6516
X5.7165Y-3.7067
X5.7382Y-3.4055
X5.7402Y-3.8602
X5.7402Y-3.9094
X5.7598Y-3.5236
X5.7736Y-3.8602
X5.7736Y-3.9094
X5.811Y-3.5571
X5.8307Y-3.8917
X5.8319Y-3.6799
X5.8366Y-3.4055
X5.8425Y-3.9154
X5.8543Y-3.685
X5.861Y-3.4102
X5.8819Y-3.8071
X5.8839Y-3.9134
X5.8937Y-3.6841
X5.8937Y-3.7165
X5.9035Y-3.4547
X5.9043Y-3.5453
X5.9055Y-3.8996
X5.9063Y-3.478
X5.9094Y-3.6043
X5.9402Y-3.4941
X5.9409Y-3.6417
X5.9409Y-3.811
X5.9409Y-3.8346
X5.9421Y-3.5252
X5.9528Y-3.5673
X5.9528Y-3.7913
X5.9543Y-3.8823
X5.9606Y-3.7087
X5.9618Y-3.6654
X5.9685Y-3.4532
X5.9764Y-3.8031
X5.9921Y-3.5705
X6.0Y-3.7047
X6.002Y-3.8996
X6.0039Y-3.8031
X6.0236Y-3.5787
X6.0276Y-3.6811
X6.0315Y-3.7874
X6.0315Y-3.8228
X6.0354Y-3.6496
X6.0354Y-3.7205
X6.0394Y-3.626
X6.0394Y-3.748
X6.04Y-3.8459
X6.0472Y-3.5827
X6.0531Y-3.4902
X6.0728Y-3.44
X6.0894Y-3.8756
X6.0984Y-3.7835
X6.1063Y-3.6014
X6.1063Y-3.626
X6.1063Y-3.7244
X6.1083Y-3.8209
X6.1299Y-3.6299
X6.1299Y-3.7244
X6.1327Y-3.5661
X6.1339Y-3.9114
X6.1417Y-3.8228
X6.1575Y-3.6299
X6.1575Y-3.7244
X6.1732Y-3.4429
X6.1732Y-3.685
X6.1811Y-3.7992
X6.185Y-3.8346
X6.1895Y-3.7238
X6.1929Y-3.6142
X6.2276Y-3.4984
X6.2323Y-3.7795
X6.2402Y-3.8543
X6.2589Y-3.4409
X6.2638Y-3.7835
X6.2677Y-3.6142
X6.2717Y-3.8543
X6.2835Y-3.5906
X6.3067Y-3.5874
X6.3071Y-3.4858
X6.3234Y-3.8982
X6.3307Y-3.7126
X6.3307Y-3.7402
X6.3307Y-3.7638
X6.3307Y-3.7874
X6.3346Y-3.6142
X6.3465Y-3.8189
X6.3661Y-3.6181
X6.3937Y-3.6142
X6.3937Y-3.8189
X6.4173Y-3.8189
X6.4181Y-3.8811
X6.4252Y-3.5364
X6.4409Y-3.8228
X6.4496Y-3.8811
X6.4577Y-3.8012
X6.4685Y-3.5433
X6.4724Y-3.8228
X6.5Y-3.815
X6.5039Y-3.5433
X6.5276Y-3.5453
X6.5335Y-3.6713
X6.5354Y-3.7087
X6.5354Y-3.7874
X6.5492Y-3.5812
X6.5551Y-3.5453
X6.563Y-3.8465
X6.5728Y-3.563
X6.5906Y-3.8622
X6.6134Y-3.4307
X6.6358Y-3.5866
X6.6417Y-3.8228
X6.6791Y-3.5915
X6.6811Y-3.7559
X6.748Y-3.8071
X6.7559Y-3.8504
X6.7598Y-3.7244
X6.7598Y-3.7835
X6.7638Y-3.5669
X6.7677Y-3.5394
X6.7756Y-3.878
X6.7776Y-3.4587
X6.7795Y-3.815
X6.7835Y-3.5118
X6.8573Y-3.6614
X6.8661Y-3.4035
X6.8907Y-3.9075
X6.9409Y-3.8888
X6.9675Y-3.687
X6.9764Y-3.4035
X7.065Y-3.4921
T3
X6.3829Y-3.6663
X6.3829Y-3.7165
X6.3829Y-3.7667
X6.4331Y-3.6663
X6.4331Y-3.7165
X6.4331Y-3.7667
X6.4833Y-3.6663
X6.4833Y-3.7165
X6.4833Y-3.7667
T5
X5.4331Y-3.4449
X5.4331Y-3.878
X7.0472Y-3.4252
X7.0472Y-3.8976
T4
G00X6.8197Y-3.4913
M15
G01X6.863Y-3.4913
M16
G05
G00X6.8197Y-3.8315
M15
G01X6.863Y-3.8315
M16
G05
G00X6.9941Y-3.4913
M15
G01X7.0177Y-3.4913
M16
G05
G00X6.9941Y-3.8315
M15
G01X7.0177Y-3.8315
M16
G05
T0
M30
