G04 #@! TF.GenerationSoftware,KiCad,Pcbnew,7.0.7*
G04 #@! TF.CreationDate,2024-03-21T15:18:08+09:00*
G04 #@! TF.ProjectId,rs-probe,72732d70-726f-4626-952e-6b696361645f,rev?*
G04 #@! TF.SameCoordinates,Original*
G04 #@! TF.FileFunction,Soldermask,Bot*
G04 #@! TF.FilePolarity,Negative*
%FSLAX46Y46*%
G04 Gerber Fmt 4.6, Leading zero omitted, Abs format (unit mm)*
G04 Created by KiCad (PCBNEW 7.0.7) date 2024-03-21 15:18:08*
%MOMM*%
%LPD*%
G01*
G04 APERTURE LIST*
G04 Aperture macros list*
%AMRoundRect*
0 Rectangle with rounded corners*
0 $1 Rounding radius*
0 $2 $3 $4 $5 $6 $7 $8 $9 X,Y pos of 4 corners*
0 Add a 4 corners polygon primitive as box body*
4,1,4,$2,$3,$4,$5,$6,$7,$8,$9,$2,$3,0*
0 Add four circle primitives for the rounded corners*
1,1,$1+$1,$2,$3*
1,1,$1+$1,$4,$5*
1,1,$1+$1,$6,$7*
1,1,$1+$1,$8,$9*
0 Add four rect primitives between the rounded corners*
20,1,$1+$1,$2,$3,$4,$5,0*
20,1,$1+$1,$4,$5,$6,$7,0*
20,1,$1+$1,$6,$7,$8,$9,0*
20,1,$1+$1,$8,$9,$2,$3,0*%
G04 Aperture macros list end*
%ADD10RoundRect,0.400000X-1.500000X-0.400000X1.500000X-0.400000X1.500000X0.400000X-1.500000X0.400000X0*%
%ADD11C,0.650000*%
%ADD12O,2.100000X1.000000*%
%ADD13O,1.600000X1.000000*%
%ADD14C,1.552000*%
%ADD15RoundRect,0.200000X0.350000X-0.200000X0.350000X0.200000X-0.350000X0.200000X-0.350000X-0.200000X0*%
%ADD16C,0.990600*%
%ADD17C,0.787400*%
%ADD18C,1.000000*%
%ADD19RoundRect,0.137500X0.137500X0.137500X-0.137500X0.137500X-0.137500X-0.137500X0.137500X-0.137500X0*%
%ADD20RoundRect,0.175000X0.250000X-0.175000X0.250000X0.175000X-0.250000X0.175000X-0.250000X-0.175000X0*%
%ADD21RoundRect,0.137500X-0.137500X-0.137500X0.137500X-0.137500X0.137500X0.137500X-0.137500X0.137500X0*%
%ADD22RoundRect,0.375000X0.375000X0.625000X-0.375000X0.625000X-0.375000X-0.625000X0.375000X-0.625000X0*%
%ADD23RoundRect,0.275000X0.325000X0.275000X-0.325000X0.275000X-0.325000X-0.275000X0.325000X-0.275000X0*%
%ADD24RoundRect,0.150000X-0.825000X-0.150000X0.825000X-0.150000X0.825000X0.150000X-0.825000X0.150000X0*%
G04 APERTURE END LIST*
D10*
X132100000Y-87920000D03*
X132100000Y-90460000D03*
X132100000Y-93000000D03*
X132100000Y-95540000D03*
X132100000Y-98080000D03*
D11*
X174300000Y-95890000D03*
X174300000Y-90110000D03*
D12*
X173770000Y-97320000D03*
D13*
X177950000Y-97320000D03*
D12*
X173770000Y-88680000D03*
D13*
X177950000Y-88680000D03*
D14*
X179000000Y-99000000D03*
X138000000Y-98500000D03*
X138000000Y-87500000D03*
X179000000Y-87000000D03*
D15*
X170400000Y-86508000D03*
X171900000Y-86508000D03*
X173400000Y-86508000D03*
D16*
X141960000Y-87800000D03*
X147040000Y-86784000D03*
X147040000Y-88816000D03*
D17*
X143230000Y-87165000D03*
X143230000Y-88435000D03*
X144500000Y-87165000D03*
X144500000Y-88435000D03*
X145770000Y-87165000D03*
X145770000Y-88435000D03*
D18*
X154900000Y-93000000D03*
D19*
X179150000Y-96250000D03*
X178250000Y-96250000D03*
D18*
X158000000Y-94000000D03*
X158300000Y-91500000D03*
D20*
X163925000Y-92175000D03*
X163925000Y-90875000D03*
D18*
X156100000Y-95500000D03*
D21*
X137250000Y-93000000D03*
X138150000Y-93000000D03*
D22*
X149500000Y-98800000D03*
X144460000Y-98800000D03*
D20*
X165575000Y-92175000D03*
X165575000Y-90875000D03*
D23*
X140100000Y-87000000D03*
D22*
X141950000Y-98800000D03*
X147000000Y-98800000D03*
D24*
X173475000Y-94905000D03*
X173475000Y-93635000D03*
X173475000Y-92365000D03*
X173475000Y-91095000D03*
X178425000Y-91095000D03*
X178425000Y-92365000D03*
X178425000Y-93635000D03*
X178425000Y-94905000D03*
M02*
